#!OML:ASF E:\motion texture\Top Level 1\Subject 1\Session 1\male.ASF
:FULLY-SPECIFIED
:DEGREES
548
root -22.4979 17.9853 3.27897 1202.83 -76.0341 -1203.06
lowerback 4.71393 1.64009 8.69401
upperback -1.40522 2.75182 4.57708
thorax -3.93522 1.1404 -0.313351
lowerneck -20.9961 -3.8567 -4.68243
upperneck 17.3281 -5.21894 5.94845
head 9.19109 -2.11069 2.08291
rclavicle -3.14949e-015 3.598e-014
rhumerus -5.6747 18.5068 -86.9227
rradius 76.3632
rwrist -12.1473
rhand -11.9507 -14.0569
rfingers 7.12502
rthumb 14.1045 -43.5582
lclavicle -3.14949e-015 3.598e-014
lhumerus -52.7951 -3.96809 82.201
lradius 33.3046
lwrist -6.63393
lhand -7.68697 9.56011
lfingers 7.12502
lthumb 18.21 38.7277
rfemur -7.10193 8.39716 39.7656
rtibia 22.7056
rfoot 891.675 -184.179
rtoes 20.2172
lfemur -70.2883 11.2547 -6.75518
ltibia 57.2142
lfoot 1272.31 5.84741
ltoes 4.89479
549
root -22.6403 18.008 3.28706 1204.81 -75.6864 -1205.16
lowerback 4.88314 1.88018 8.91407
upperback -1.41383 3.10572 4.47803
thorax -4.00033 1.30677 -0.568106
lowerneck -20.9304 -3.92908 -4.74031
upperneck 17.351 -5.31552 5.99018
head 9.19608 -2.15648 2.0935
rclavicle 8.2185e-015 2.20651e-014
rhumerus -3.94887 18.822 -86.3414
rradius 77.648
rwrist -12.4549
rhand -12.0089 -13.8148
rfingers 7.12502
rthumb 14.0484 -43.32
lclavicle 8.2185e-015 2.20651e-014
lhumerus -54.7524 -4.11567 81.4855
lradius 34.0158
lwrist -5.79398
lhand -7.40249 9.53316
lfingers 7.12502
lthumb 18.4837 38.675
rfemur -6.14138 8.67514 39.822
rtibia 22.2421
rfoot 891.553 -183.941
rtoes 20.2552
lfemur -73.3341 11.5323 -7.13202
ltibia 55.99
lfoot 1272.33 5.8531
ltoes 5.3008
550
root -22.7841 18.0295 3.29475 1206.49 -75.3767 -1206.91
lowerback 5.01443 2.10143 9.0938
upperback -1.4451 3.42994 4.39512
thorax -4.0694 1.45862 -0.78152
lowerneck -20.8541 -4.00523 -4.81769
upperneck 17.3843 -5.41267 6.03225
head 9.20343 -2.20398 2.10747
rclavicle 1.78596e-014 -1.13307e-014
rhumerus -2.27191 19.1075 -85.683
rradius 78.8269
rwrist -12.7594
rhand -12.0856 -13.5652
rfingers 7.12502
rthumb 13.9746 -43.0755
lclavicle 1.78596e-014 -1.13307e-014
lhumerus -56.6474 -4.27072 80.7995
lradius 34.7003
lwrist -5.09364
lhand -7.16869 9.48426
lfingers 7.12502
lthumb 18.7086 38.6046
rfemur -5.23918 8.89856 39.8515
rtibia 21.8013
rfoot 891.428 -183.72
rtoes 20.2736
lfemur -76.292 11.6916 -7.48796
ltibia 55.0192
lfoot 1272.4 5.88575
ltoes 5.64677
551
root -22.9285 18.0501 3.30176 1207.83 -75.116 -1208.3
lowerback 5.11809 2.29579 9.23349
upperback -1.49323 3.71439 4.33217
thorax -4.14462 1.59103 -0.949089
lowerneck -20.7851 -4.08448 -4.91572
upperneck 17.444 -5.50839 6.07032
head 9.22175 -2.25231 2.12367
rclavicle 1.37472e-014 3.12092e-014
rhumerus -0.635034 19.3682 -84.9532
rradius 79.888
rwrist -13.0059
rhand -12.1629 -13.3316
rfingers 7.12502
rthumb 13.9 -42.847
lclavicle 1.37472e-014 3.12092e-014
lhumerus -58.4686 -4.41681 80.1385
lradius 35.3415
lwrist -4.51612
lhand -6.96627 9.41579
lfingers 7.12502
lthumb 18.9033 38.5173
rfemur -4.38819 9.06235 39.8619
rtibia 21.382
rfoot 891.308 -183.524
rtoes 20.2394
lfemur -79.1364 11.7277 -7.80828
ltibia 54.2953
lfoot 1272.49 5.96718
ltoes 5.92445
552
root -23.0738 18.0702 3.30848 1208.92 -74.902 -1209.44
lowerback 5.21006 2.46605 9.33458
upperback -1.54751 3.96387 4.28407
thorax -4.22419 1.70674 -1.07767
lowerneck -20.7235 -4.16161 -5.02279
upperneck 17.519 -5.59819 6.10374
head 9.24651 -2.29875 2.14059
rclavicle -1.34304e-014 -4.17448e-015
rhumerus 0.961627 19.5933 -84.1734
rradius 80.8155
rwrist -13.1479
rhand -12.2224 -13.1037
rfingers 7.12502
rthumb 13.8426 -42.623
lclavicle -1.34304e-014 -4.17448e-015
lhumerus -60.2018 -4.54168 79.4919
lradius 35.9218
lwrist -4.03406
lhand -6.86108 9.24423
lfingers 7.12502
lthumb 19.0044 38.3358
rfemur -3.56591 9.1786 39.8469
rtibia 20.9892
rfoot 891.186 -183.343
rtoes 20.1587
lfemur -81.8266 11.6658 -8.10125
ltibia 53.8123
lfoot 1272.58 6.10896
ltoes 6.17298
553
root -23.2196 18.0894 3.31445 1209.77 -74.7413 -1210.36
lowerback 5.30662 2.60794 9.3934
upperback -1.59644 4.17353 4.24816
thorax -4.30662 1.80392 -1.16826
lowerneck -20.6652 -4.23418 -5.13398
upperneck 17.5961 -5.67955 6.13267
head 9.27219 -2.34196 2.15782
rclavicle 3.13334e-014 1.39149e-015
rhumerus 2.51628 19.7822 -83.3644
rradius 81.6024
rwrist -13.1597
rhand -12.2648 -12.8684
rfingers 7.12502
rthumb 13.8018 -42.3906
lclavicle 3.13334e-014 1.39149e-015
lhumerus -61.8366 -4.64489 78.8579
lradius 36.4448
lwrist -3.59545
lhand -6.73863 9.06754
lfingers 7.12502
lthumb 19.1222 38.1475
rfemur -2.74799 9.2461 39.8082
rtibia 20.6185
rfoot 891.066 -183.178
rtoes 20.0331
lfemur -84.3215 11.5136 -8.36389
ltibia 53.562
lfoot 1272.65 6.32758
ltoes 6.34064
554
root -23.365 18.1075 3.31989 1210.42 -74.6312 -1211.11
lowerback 5.43692 2.72063 9.40769
upperback -1.64251 4.3462 4.22631
thorax -4.41195 1.88324 -1.21955
lowerneck -20.6268 -4.30198 -5.24514
upperneck 17.6888 -5.75186 6.15024
head 9.30603 -2.38167 2.17226
rclavicle 1.37658e-014 -1.66979e-014
rhumerus 4.01319 19.9383 -82.5409
rradius 82.2495
rwrist -13.0521
rhand -12.2728 -12.6301
rfingers 7.12502
rthumb 13.7941 -42.1527
lclavicle 1.37658e-014 -1.66979e-014
lhumerus -63.3759 -4.72132 78.2438
lradius 36.904
lwrist -3.18754
lhand -6.61141 8.8565
lfingers 7.12502
lthumb 19.2445 37.9243
rfemur -1.92386 9.26891 39.7471
rtibia 20.2661
rfoot 890.95 -183.026
rtoes 19.8391
lfemur -86.6016 11.2886 -8.60615
ltibia 53.5224
lfoot 1272.68 6.61784
ltoes 6.49631
555
root -23.5101 18.1245 3.32451 1210.92 -74.5709 -1211.74
lowerback 5.59834 2.81072 9.37662
upperback -1.67598 4.48923 4.21254
thorax -4.52788 1.94924 -1.23764
lowerneck -20.6147 -4.36471 -5.34049
upperneck 17.785 -5.81565 6.14566
head 9.34407 -2.41815 2.17737
rclavicle 1.82758e-014 -1.43125e-014
rhumerus 5.44024 20.0478 -81.7221
rradius 82.7699
rwrist -12.8446
rhand -12.2586 -12.3898
rfingers 7.12502
rthumb 13.8077 -41.9116
lclavicle 1.82758e-014 -1.43125e-014
lhumerus -64.8012 -4.78141 77.6522
lradius 37.3099
lwrist -2.78982
lhand -6.46091 8.64375
lfingers 7.12502
lthumb 19.3892 37.6971
rfemur -1.10215 9.26163 39.6609
rtibia 19.9591
rfoot 890.833 -182.895
rtoes 19.6221
lfemur -88.6499 11.011 -8.84277
ltibia 53.6776
lfoot 1272.65 6.96556
ltoes 6.49329
556
root -23.6545 18.1403 3.32845 1211.3 -74.5517 -1212.28
lowerback 5.79404 2.87952 9.30529
upperback -1.69877 4.60496 4.20787
thorax -4.65815 2.00279 -1.22464
lowerneck -20.6006 -4.41837 -5.43566
upperneck 17.8671 -5.86559 6.13929
head 9.37603 -2.44851 2.18381
rclavicle 1.16724e-014 -9.14409e-015
rhumerus 6.77981 20.1208 -80.9244
rradius 83.1763
rwrist -12.5793
rhand -12.2033 -12.1652
rfingers 7.12502
rthumb 13.8611 -41.6833
lclavicle 1.16724e-014 -9.14409e-015
lhumerus -66.118 -4.82743 77.093
lradius 37.6626
lwrist -2.4112
lhand -6.296 8.44707
lfingers 7.12502
lthumb 19.5478 37.4844
rfemur -0.278495 9.22569 39.5546
rtibia 19.6944
rfoot 890.719 -182.777
rtoes 19.3259
lfemur -90.4558 10.7 -9.07938
ltibia 54.0098
lfoot 1272.57 7.34457
ltoes 6.42408
557
root -23.7985 18.1545 3.33184 1211.6 -74.5685 -1212.77
lowerback 6.00988 2.9319 9.19971
upperback -1.70711 4.69768 4.2081
thorax -4.78974 2.04653 -1.18753
lowerneck -20.6075 -4.46582 -5.51271
upperneck 17.9429 -5.90591 6.11237
head 9.40767 -2.47496 2.18126
rclavicle 5.62809e-015 -5.1684e-014
rhumerus 8.02964 20.1668 -80.149
rradius 83.4815
rwrist -12.3107
rhand -12.1398 -11.9486
rfingers 7.12502
rthumb 13.9223 -41.4625
lclavicle 5.62809e-015 -5.1684e-014
lhumerus -67.3103 -4.86248 76.57
lradius 37.9606
lwrist -2.08124
lhand -6.15604 8.24944
lfingers 7.12502
lthumb 19.6823 37.273
rfemur 0.533656 9.1637 39.4262
rtibia 19.4818
rfoot 890.609 -182.664
rtoes 18.9839
lfemur -92.024 10.3718 -9.32833
ltibia 54.4961
lfoot 1272.44 7.71431
ltoes 6.24811
